<?xml version="1.0" encoding="UTF-8"?>
<svg width="1200" height="800" viewBox="0 0 1200 800" fill="none" xmlns="http://www.w3.org/2000/svg">
  <defs>
    <linearGradient id="g1" x1="0" y1="0" x2="1" y2="1">
      <stop offset="0%" stop-color="#22c55e"/>
      <stop offset="100%" stop-color="#3b82f6"/>
    </linearGradient>
    <filter id="blur" x="-20%" y="-20%" width="140%" height="140%">
      <feGaussianBlur stdDeviation="40"/>
    </filter>
  </defs>
  <rect width="1200" height="800" rx="40" fill="#0b1220"/>
  <g opacity="0.25" filter="url(#blur)">
    <circle cx="300" cy="200" r="200" fill="url(#g1)"/>
    <circle cx="900" cy="600" r="220" fill="url(#g1)"/>
  </g>
  <g transform="translate(150,420)">
    <rect x="0" y="0" width="900" height="180" rx="40" fill="#0f172a" stroke="#1f2937" stroke-width="2"/>
    <rect x="40" y="-30" width="660" height="120" rx="60" fill="#111827" stroke="#1f2937"/>
    <rect x="130" y="-10" width="490" height="80" rx="40" fill="#0b1220"/>
    <circle cx="190" cy="80" r="48" fill="#0b1220" stroke="#22c55e" stroke-width="8"/>
    <circle cx="770" cy="80" r="48" fill="#0b1220" stroke="#3b82f6" stroke-width="8"/>
    <rect x="730" y="-20" width="120" height="40" rx="20" fill="#0b1220" stroke="#1f2937"/>
    <rect x="620" y="-10" width="80" height="20" rx="10" fill="#22c55e"/>
    <rect x="680" y="-10" width="20" height="20" rx="10" fill="#3b82f6"/>
  </g>
  <g transform="translate(970,270)">
    <rect x="0" y="0" width="10" height="180" rx="5" fill="#1f2937"/>
    <rect x="-40" y="0" width="80" height="30" rx="6" fill="#111827" stroke="#1f2937"/>
    <rect x="-30" y="10" width="60" height="10" rx="5" fill="#22c55e"/>
  </g>
  <text x="80" y="120" fill="#e5e7eb" font-family="Inter, system-ui, Arial" font-size="48" font-weight="700">EV Co-own</text>
  <text x="82" y="160" fill="#94a3b8" font-family="Inter, system-ui, Arial" font-size="20">Đồng sở hữu xe điện</text>
</svg>
